<svg xmlns="http://www.w3.org/2000/svg" width="24" height="24" viewBox="0 0 24 24" fill="currentColor">
  <path d="M21.3,0H2.7C1.2,0 0,1.2 0,2.7v18.7C0,22.8 1.2,24 2.7,24h18.7c1.5,0 2.7-1.2 2.7-2.7V2.7C24,1.2 22.8,0 21.3,0zM4.1,11.2c-0.4-0.4-0.4-1.1 0-1.6L7.7,6H7.3C6.7,6 6.1,5.5 6.1,4.8s0.5-1.1 1.2-1.1h4.3V8c0,0.7-0.5,1.1-1.1,1.1S9.3,8.5 9.3,8V7.6l-3.6,3.6C5.2,11.6 4.5,11.6 4.1,11.2zM18.9,8.9h-1.6v3.7h-2.9v3.7h-2.8v3.7H7.7c-0.5-0.1-1.1-0.7-1.1-1.2c0-0.7 0.5-1.1 1.1-1.1h1.6v-3.7h2.9v-3.7h2.8V6.7h3.9c0.5,0 1.1,0.5 1.1,1.1C20,8.4 19.5,8.9 18.9,8.9z"/>
</svg>
