<svg xmlns="http://www.w3.org/2000/svg" width="24" height="24" viewBox="0 0 24 24" fill="currentColor">
  <path d="M21.3,0H2.7C1.2,0 0,1.2 0,2.7v18.7C0,22.8 1.2,24 2.7,24h18.7c1.5,0 2.7-1.2 2.7-2.7V2.7C24,1.2 22.8,0 21.3,0zM11.9,3.3c0.9,0 1.7,0.8 1.7,1.7s-0.8,1.7-1.7,1.7c-0.9,0-1.7-0.8-1.7-1.7S10.8,3.3 11.9,3.3zM14.5,15.5h-1.3v4.3c0,0.5-0.4,0.9-0.9,0.9h-0.9c-0.5,0-0.8-0.4-0.8-0.9v-4.3H9.2c-0.5,0-1.1-0.5-0.8-1.2l1.9-5.5c0.3-0.7 0.9-1.2 1.6-1.2H12c0.8,0 1.5,0.5 1.6,1.2l1.9,5.5C15.5,14.9 15.1,15.5 14.5,15.5z"/>
</svg>
